/* XPM */
static char *_dd24d27b845483a89c4e50bf8f772d0LgDI47XQya48EE4h[] = {
/* columns rows colors chars-per-pixel */
"64 64 256 2 ",
"   c black",
".  c gray3",
"X  c #101010",
"o  c #181818",
"O  c #202020",
"+  c #282828",
"@  c gray19",
"#  c gray22",
"$  c gray25",
"%  c #484848",
"&  c #505050",
"*  c #585858",
"=  c #606060",
"-  c #686868",
";  c gray44",
":  c gray47",
">  c #808080",
",  c #888888",
"<  c #909090",
"1  c #989898",
"2  c #A0A0A0",
"3  c gray66",
"4  c gray69",
"5  c #BCBCBC",
"6  c gray77",
"7  c gray80",
"8  c gray83",
"9  c gainsboro",
"0  c #E4E4E4",
"q  c #ECECEC",
"w  c #F4F4F4",
"e  c gray99",
"r  c #141418",
"t  c #1C1C24",
"y  c #282830",
"u  c #34343C",
"i  c #3C3C48",
"p  c #484854",
"a  c #545460",
"s  c #606070",
"d  c #68687C",
"f  c #747488",
"g  c #808094",
"h  c #8888A0",
"j  c #9494AC",
"k  c #A0A0B8",
"l  c #ACACC8",
"z  c #DCDCFC",
"x  c #240C00",
"c  c #301000",
"v  c #381804",
"b  c #442004",
"n  c #50280C",
"m  c #5C3414",
"M  c #683C1C",
"N  c #744824",
"B  c #805430",
"V  c #8C603C",
"C  c #986C4C",
"Z  c #A47C58",
"A  c #B08868",
"S  c #BC9878",
"D  c #C8A88C",
"F  c #F0D0B4",
"G  c #2C1414",
"H  c #381C18",
"J  c #482420",
"K  c #543028",
"L  c #603C2C",
"P  c #704834",
"I  c #7C5438",
"U  c #8C6440",
"Y  c #987448",
"T  c #A8844C",
"R  c #B49050",
"E  c #C09C58",
"W  c #D0AC5C",
"Q  c #DCB864",
"!  c #E8C868",
"~  c #FCDC70",
"^  c #38140C",
"/  c #401810",
"(  c #4C2014",
")  c #54281C",
"_  c #5C2C24",
"`  c #68342C",
"'  c #704034",
"]  c #7C483C",
"[  c #845048",
"{  c #905C50",
"}  c #98685C",
"|  c #A47068",
" . c #AC8074",
".. c #B88C84",
"X. c #C49890",
"o. c #F0C0B8",
"O. c #080810",
"+. c #0C0C18",
"@. c #101020",
"#. c #141828",
"$. c #181C30",
"%. c #202038",
"&. c #242440",
"*. c #282C4C",
"=. c #2C3054",
"-. c #30345C",
";. c #343C64",
":. c #38406C",
">. c #3C4474",
",. c #404C7C",
"<. c #445084",
"1. c #48588C",
"2. c #506094",
"3. c #586C9C",
"4. c #6074A8",
"5. c #6880B0",
"6. c #7488B8",
"7. c #7C94C0",
"8. c #84A0C8",
"9. c #90ACD4",
"0. c #00009C",
"q. c #0C28B4",
"w. c #2058CC",
"e. c #2870D4",
"r. c #3084E0",
"t. c #3898E8",
"y. c #44ACF0",
"u. c #50C4FC",
"i. c #301408",
"p. c #3C1808",
"a. c #481C08",
"s. c #54200C",
"d. c #60200C",
"f. c #6C240C",
"g. c #78240C",
"h. c #84280C",
"j. c #902808",
"k. c #9C2808",
"l. c #A82808",
"z. c #B42404",
"x. c #C02404",
"c. c #D02000",
"v. c #DC2000",
"b. c #FC2400",
"n. c #300000",
"m. c #480000",
"M. c #600000",
"N. c #7C0000",
"B. c #940000",
"V. c #AC0000",
"C. c #C00000",
"Z. c #CC0C00",
"A. c #EC0000",
"S. c #FC5000",
"D. c #FC7000",
"F. c #FC9800",
"G. c #FCB400",
"H. c #FCD800",
"J. c #FCFC00",
"K. c #FCFC68",
"L. c #0C1814",
"P. c #10201C",
"I. c #182C24",
"U. c #20342C",
"Y. c #2C4034",
"T. c #344C3C",
"R. c #3C5448",
"E. c #486050",
"W. c #546858",
"Q. c #607464",
"!. c #688070",
"~. c #788878",
"^. c #849488",
"/. c #909C94",
"(. c #A0A8A0",
"). c #D0D4D0",
"_. c #501804",
"`. c #6C2404",
"'. c #8C3804",
"]. c #A84C04",
"[. c #C86004",
"{. c #D87C04",
"}. c #E88C00",
"|. c #FC9000",
" X c #001C00",
".X c #002800",
"XX c #043804",
"oX c #104810",
"OX c #1C581C",
"+X c #286828",
"@X c #3C783C",
"#X c #508850",
"$X c #241400",
"%X c #2C1C00",
"&X c #382404",
"*X c #442C04",
"=X c #503408",
"-X c #583C10",
";X c #644418",
":X c #705020",
">X c #785828",
",X c #846434",
"<X c #906C3C",
"1X c #9C7848",
"2X c #A48458",
"3X c #B09064",
"4X c #BC9C74",
"5X c #C8AC84",
"6X c #B44C04",
"7X c #C05410",
"8X c #D05C20",
"9X c #E06830",
"0X c #E47438",
"qX c #E88440",
"wX c #EC9048",
"eX c #F0A050",
"rX c #F0B05C",
"tX c #F0B864",
"yX c #F4C874",
"uX c #F4D47C",
"iX c #F8D88C",
"pX c #F8E494",
"aX c #F8E8A4",
"sX c #FCF0AC",
"dX c #8C1C1C",
"fX c #942C28",
"gX c #A03C38",
"hX c #AC5048",
"jX c #B8645C",
"kX c #C4786C",
"lX c #D09084",
"zX c #DCA89C",
"xX c #140808",
"cX c #200C0C",
"vX c #301414",
"bX c #3C1C18",
"nX c #4C241C",
"mX c #582C24",
"MX c #683828",
"NX c #74402C",
"BX c #844C30",
"VX c #885034",
"CX c #8C5838",
"ZX c #945C3C",
"AX c #986440",
"SX c #9C6C48",
"DX c #A0704C",
"FX c #A87850",
"GX c #AC8058",
"HX c #B0885C",
"JX c #B88C64",
"KX c #BC9468",
"LX c #C09C70",
"PX c #C8A478",
"IX c #E4C8A0",
"UX c #BC00A0",
/* pixels */
"r r r r r r r r r r r X r r r r r # % = = = = = = = * # # # # # + + + + + + $ % $ # + # # + + O . r r O r r O O r r r G G G r . ",
"O O + + + O O r O O + + O + r O r % * = = = * * * * * & & & & & & & & & & * & % % % % % & & * & r O @ + + + O O + + + @ @ @ + + ",
"# # $ # # # # # $ $ $ # + + @ r X $ & % $ $ $ # $ $ # # # @ $ $ # # # $ $ $ # # # @ # # # # $ & r + # $ # @ @ @ @ @ # @ # # # # ",
"# # $ # # # # # $ $ # @ O O + r r $ $ % $ @ @ # # # $ $ # $ $ $ $ % % # # @ @ @ @ # # # # # # & r + # # # @ # $ # # # @ # # $ # ",
"@ @ @ @ # # # # # # # + + + + r r % & & & $ # @ $ # $ $ $ $ i i # $ % % % # # @ @ # i $ $ $ # $ r O # # @ # # # # # # # # # @ @ ",
"@ @ @ @ @ @ @ @ @ @ @ @ # # @ r r # % & & % $ # # $ $ $ % # i i i $ & % % % % % % % $ * % % $ $ r O # # @ @ # # $ $ # # # @ + + ",
"@ @ @ @ @ @ + + + + @ @ @ u # O r # $ $ $ $ $ $ % % $ $ $ $ # # # $ % % & & & * = & * * = = * % r + # # # $ # $ $ $ $ $ @ @ @ @ ",
"$ $ + + @ @ @ @ @ @ + @ @ @ @ O X # # @ + # % % % & % % $ $ # @ $ $ % & * * * * * & = - * * * % r O @ # $ $ # $ $ $ # # @ @ $ $ ",
"# # @ + @ # @ @ # # $ # + # # + O # % @ O @ $ $ % % % $ $ $ # # # $ % & & & * = = * & = = = * % r O @ @ # # # # # # # @ # # # @ ",
"# # $ $ @ # @ @ # # # # # $ % # O # # @ + % % % % & & % % # # # y $ & * * * * = = = = * % % & % r O @ @ @ @ # # # # # @ # # @ # ",
"% % % $ # $ @ $ $ $ % % $ % % @ O + # # $ & & * * * * & & $ # # $ % & = = = = = = * & & & & & % + + @ + + + @ # # # # # $ $ # $ ",
"$ $ $ % % $ # $ & & $ % # & % @ O % # % * * * % * & * & & % $ $ % & * = = = * * * % $ * & & & % + + @ + + + + # # # @ @ # # % % ",
"$ $ $ % & % & & & & $ # $ $ # @ O + $ % * & & * & % % % % $ % $ % & * = * * & % % % & % % % & % O O @ @ + # @ @ @ @ @ # @ @ $ $ ",
"$ $ $ % % # % # # # # % $ $ $ # O + $ # % = = $ @ # # # # # # $ % % & & & & $ $ $ $ & % $ $ & % O O + @ # + + @ @ @ @ @ @ # # $ ",
"% % % % % $ % # $ $ $ % % & $ O O # # $ & * * % @ @ # # @ @ # # $ $ % % & & $ % % % & * = = * % r r @ # # @ # # $ $ # @ # # @ $ ",
"+ # @ @ # # % # @ @ # # % $ # r X + # $ # $ $ @ @ # + + + H + + @ # # $ $ + # $ $ % % % % % & = r r O + + + + + + + + + O r r r ",
"r r X X r r r O O O O O r r O X X + + @ + + + + + + @ @ + + r r O + + @ @ + + @ @ + # # % % $ @ . X r r r r r r r r r r r r r X ",
"+ O + @ $ $ $ $ # $ $ $ u @ % % % % & & & & & & & & % % % % $ r r . . . . O + + + @ @ # # # $ # @ + + + + + O O X + + + r X . X ",
"@ i & % % $ $ $ $ % % % $ u u $ # # $ % % % % & & & & & * & % @ + # # # # % $ $ % % % & & % % % $ $ $ $ & $ u u u u # # # + . @ ",
"i % * & & % % % & & & % $ i i $ # @ $ $ u u # # % % % % * = = $ @ * * * & & % & & & & * & & & # # # & % % % i i i $ $ $ $ @ r + ",
"i i % & & * * * * * * & % % & % $ $ i $ $ $ % % & & & * = * & $ @ $ $ $ $ $ $ $ % % % & & $ # % % i % $ $ $ $ i % % $ % % # X + ",
"i % % & & & * * * = = * & & * & i i $ $ $ $ & * & & % & * & % @ + $ $ % % % & & & & & % % % & & & & & % * * & * * * * * = % r + ",
"i i & & & & * * * = * * & & * & % # $ # & % % * & % % & & % $ + + % & * = = = = & = = = * = = = & = = = - - = ; ; = = = - & O @ ",
"# @ # $ % & & & * * & & % % % % % & * & % % % % % # % & & % $ + + & & & * * = - = = = = * * = - = = = = - - = = * - - - = & r @ ",
"u # # $ $ % % % % % % % $ $ $ @ $ & % $ % % # # $ * & & & % $ O + % & & * * * = - = = * = * * = - = = * * * * * & * * = - % r + ",
"u # # % # @ $ $ $ $ $ # + @ @ $ % & & & % % % % % % % % % $ @ r + & * * = = = = & = = = = = = = & = = = * * * * * = = = * % r + ",
"@ + + % % @ $ # # # @ + + # # $ # $ & & % % % & & & # # # # @ r X $ * * * * * = = * * = - * * = = * * = % % & = = * * = * % O O ",
"+ + + @ @ # $ $ $ # # @ @ @ @ # # # $ $ $ $ % % % & % % # @ @ r X $ = & * * * * * * * * = * * * * * * * * * & * = * * & * & + + ",
"@ + + + + O O @ @ $ @ + + $ $ # @ + # @ # # % % % & & * % $ @ r . # = * * * * = = * * & = * * = = * * & & & & & * = = = * & O r ",
"@ O O + + O O + + + @ O + + + # # @ $ $ % % % & % & & & & = # r x @ * * & & & * = * * * & * & & & * & & % % & * * % % & & % O + ",
"@ + + O + + + O O O + O + + + # # # # # % % % % % % & % % % @ r X @ & * & & & * * & & & * % % $ $ % % & & & & & & & & * % $ + @ ",
"@ r r r + + + + + + + + + + + + @ @ + @ @ @ $ $ % $ $ $ $ $ + r X + & & & & & & & * * & % $ & & & & * % & & & % $ $ $ $ $ # + + ",
"@ . . . X X r r r r O r r r + + @ + + + @ @ @ $ # @ $ # # $ O r . O + + + + + + + @ # # O O O X O + r r + + + @ + + r O @ O X @ ",
"* * * & & $ $ & * * * & $ $ + + O r r r r r r r r + @ @ @ @ + O O O O O O O O O + @ # # @ @ @ r O + + O + @ @ # + @ @ # # % % = ",
"& # # # & * * & % & & & % & & & i + O O O + + + + @ @ @ @ y y y # @ u @ @ y y @ # $ $ % $ # @ X O # # + # # # @ & & & & * & & & ",
"# % % i % $ $ $ $ i i % $ # # $ i @ + @ @ u u u u # # # # # # # # # # # # # # # $ % & & % $ @ X r + + $ $ $ $ $ $ % % % & & & $ ",
"% % % $ $ $ $ $ $ % % % % # # $ p i # @ @ @ @ @ # @ @ # $ # # $ # # # $ $ $ $ $ $ & * * & % @ r @ $ $ $ $ % % % $ % % $ % * * $ ",
"& = = - * & & * & * * * * * * = = $ # # # @ @ # # # # # # # # $ $ # # % % % % % % & * * & % @ + @ $ $ $ % % % & & & & & % % % = ",
"= & & - ; = = - = ; ; ; = = = - ; $ @ # # @ @ # + # # # @ $ $ % # % % % & % % % % $ % $ % $ @ O @ % % & * = = = = & & = = * * = ",
"- - - = * % % * * * * & * - - - - # + $ @ @ @ # % % % $ & $ $ % & % % $ $ $ $ $ $ # # % $ # O r + $ % & & * * * = - - = * = = - ",
"& = = * & $ $ % * * * - = = = = & # + & % % % * % & & $ % % % & = * * % & * * $ $ # # @ # @ O r r # % * * = = = * * * = * * * * ",
"* - - = % $ % & * * * * = = = * * # @ * & % % & & & & % $ % % * = * * % % % % % % $ $ # # # @ X O # & * * = = = = & & = = = = * ",
"= % % % $ % % % & = = = * = = * * # + = * & & & & & & % $ $ $ * * & & % % $ $ % * % % $ $ $ @ X + # % * * * * * = = = * = - - * ",
"= & & % % & & * & * * = * & & * * # + * % & & % & & & % & $ % & * * * & & & & * = & & % $ # @ X + # % = & * * * * * * * * = = = ",
"= = = & % % % % & & & & & * * * * # @ & % % % & & & & & # # $ # & & & % & & & $ # & & % % # @ X + @ $ * = * * * = * * * * * * = ",
"& & & * & & & % & * * * % & & * & @ O # # $ $ # # $ $ $ # # # $ $ % % # @ @ @ # @ # # % $ $ @ r + @ # * * & & & * = = * * & & * ",
"% $ $ % % & & & & & & & & * * % % @ O # # $ $ $ $ # # $ # # # @ @ i i # u # # u # # $ % % # + . O @ + % * & & & * * * & & * * % ",
"& & & & * % % & & & & & * $ $ $ % + r + + + + + O + + + + + + + O O @ @ @ # # # # $ $ $ O # + O r X r @ # # # # & & & * & % % $ ",
"r r r r r X X r r r + O r X X X + r X O @ @ @ # r + + + + + + r + + + + + + + + @ O O O + + + r r . X O O O O O r X X r r r r r ",
"r + + O @ @ @ r + + + + r r O O r + + + $ $ $ # # # $ $ $ $ + + * * & & & % & & * & & % $ % % # # @ @ @ # # + + + @ O O O + r . ",
"X + O # @ @ @ # # @ # # $ $ @ @ @ O + r + + + # # u @ @ @ # @ # & & $ $ $ $ # $ $ # # # @ $ $ # # # $ $ $ # # # @ # # # # + + X ",
"r O @ # $ # # # $ $ $ $ $ $ i # # # $ % & & & % $ # # # # # + + $ $ $ $ @ @ # # # $ $ # $ $ $ % % % # # @ @ @ @ # # # # # # + O ",
"X + $ $ $ $ $ # $ $ $ $ # # % $ $ $ $ % % i i i i % $ $ $ p @ @ $ % % % % $ # # # $ $ $ $ u u # $ % % % # # @ @ # i $ $ $ # @ O ",
"+ # $ $ % % % $ & % % % $ i % $ % % & & & p p % % $ % % % $ # # & & % * & % $ $ $ $ $ $ # # # %.* = % % * % % % % $ * % % $ # r ",
"+ # & $ $ % % % $ % $ $ % # $ $ # # % % % & & $ % $ $ $ % & + # $ $ $ $ % % % & & $ $ $ % # # # $ & % % & = = = & * * = = * # r ",
"O @ % $ $ $ $ $ $ % % % % % $ % % % & & * & & $ % % & & % % r + # # @ + # % % & * % * % # # @ i + = * * * * & & & = - * * * $ O ",
"O @ $ % $ $ $ % # # # # % % $ & & & % % % & & % & * = = & & r + # # @ O # @ $ $ $ % # # $ # # u u % % % % * = = * & = = = * $ O ",
"O @ % * % $ $ % % $ $ $ $ % & & % % # % % % % % $ $ % % & & O + @ # # $ & & * * & & & * $ # # u % & - - = - = = * & & & & & $ + ",
"X @ % & & & & % % & & & & % * & % % % * * * * * & & * * * & r O @ % & * & & % & & & & % $ $ $ & * & = = = * * * % $ * & & & % + ",
"X @ $ & * & & $ $ % $ $ % % & & % % $ % % % % $ % % # # $ u O O # & % & & & * & % % % % $ % % * * = = = = & % % % & % % % * & $ ",
"X @ # + @ + + @ @ @ @ @ @ @ @ u # # @ # $ # # @ @ % $ $ # O O + % & & & * = $ @ # # # @ # # # % & & & & % $ $ $ $ & % $ $ & & # ",
"@ O + + + + + + + @ @ @ + + @ @ # # # @ @ $ $ @ # $ # # # O O + % & * & * * % @ @ # # @ @ # # * = % & & & $ % % & & = = = = % + ",
"r r + @ + @ @ + + # # # # # @ @ @ @ # # # @ @ # # @ # # @ O O + % * * * = = % % & $ $ # K @ # % & & * & $ # % % % & & & & & $ + ",
"r + + @ + # # @ # # # # # # # # # # @ @ # # # # $ $ # # # + + + & & % % & = % * * % % $ $ # # % $ $ $ # @ # @ # % $ $ $ $ $ @ + "
};